<?xml version="1.0" encoding="UTF-8"?>
<svg xmlns="http://www.w3.org/2000/svg" xmlns:xlink="http://www.w3.org/1999/xlink" width="600pt" height="200pt" viewBox="0 0 600 200" version="1.1">
<defs>
<linearGradient id="linear0" gradientUnits="userSpaceOnUse" x1="300" y1="0" x2="300" y2="200" >
<stop offset="0" style="stop-color:rgb(100%,100%,100%);stop-opacity:1;"/>
<stop offset="1" style="stop-color:rgb(90%,90%,90%);stop-opacity:1;"/>
</linearGradient>
<linearGradient id="linear1" gradientUnits="userSpaceOnUse" x1="31.667969" y1="26.667969" x2="90" y2="26.667969" >
<stop offset="0" style="stop-color:rgb(58.552302%,33.344725%,44.73477%);stop-opacity:1;"/>
<stop offset="1" style="stop-color:rgb(83.646145%,47.635321%,63.906814%);stop-opacity:1;"/>
</linearGradient>
<linearGradient id="linear2" gradientUnits="userSpaceOnUse" x1="90" y1="35.554688" x2="148.332031" y2="35.554688" >
<stop offset="0" style="stop-color:rgb(10.54315%,44.440246%,60.763172%);stop-opacity:1;"/>
<stop offset="1" style="stop-color:rgb(15.061642%,63.486066%,86.804531%);stop-opacity:1;"/>
</linearGradient>
<linearGradient id="linear3" gradientUnits="userSpaceOnUse" x1="171.667969" y1="35.554688" x2="230" y2="35.554688" >
<stop offset="0" style="stop-color:rgb(58.552302%,33.344725%,44.73477%);stop-opacity:1;"/>
<stop offset="1" style="stop-color:rgb(83.646145%,47.635321%,63.906814%);stop-opacity:1;"/>
</linearGradient>
<linearGradient id="linear4" gradientUnits="userSpaceOnUse" x1="230" y1="71.109375" x2="288.332031" y2="71.109375" >
<stop offset="0" style="stop-color:rgb(10.54315%,44.440246%,60.763172%);stop-opacity:1;"/>
<stop offset="1" style="stop-color:rgb(15.061642%,63.486066%,86.804531%);stop-opacity:1;"/>
</linearGradient>
<linearGradient id="linear5" gradientUnits="userSpaceOnUse" x1="311.667969" y1="44.445312" x2="370" y2="44.445312" >
<stop offset="0" style="stop-color:rgb(58.552302%,33.344725%,44.73477%);stop-opacity:1;"/>
<stop offset="1" style="stop-color:rgb(83.646145%,47.635321%,63.906814%);stop-opacity:1;"/>
</linearGradient>
<linearGradient id="linear6" gradientUnits="userSpaceOnUse" x1="370" y1="26.667969" x2="428.332031" y2="26.667969" >
<stop offset="0" style="stop-color:rgb(10.54315%,44.440246%,60.763172%);stop-opacity:1;"/>
<stop offset="1" style="stop-color:rgb(15.061642%,63.486066%,86.804531%);stop-opacity:1;"/>
</linearGradient>
<linearGradient id="linear7" gradientUnits="userSpaceOnUse" x1="451.667969" y1="80" x2="510" y2="80" >
<stop offset="0" style="stop-color:rgb(58.552302%,33.344725%,44.73477%);stop-opacity:1;"/>
<stop offset="1" style="stop-color:rgb(83.646145%,47.635321%,63.906814%);stop-opacity:1;"/>
</linearGradient>
<linearGradient id="linear8" gradientUnits="userSpaceOnUse" x1="510" y1="8.890625" x2="568.332031" y2="8.890625" >
<stop offset="0" style="stop-color:rgb(10.54315%,44.440246%,60.763172%);stop-opacity:1;"/>
<stop offset="1" style="stop-color:rgb(15.061642%,63.486066%,86.804531%);stop-opacity:1;"/>
</linearGradient>
</defs>
<g id="surface0">
<path style=" stroke:none;fill-rule:nonzero;fill:url(#linear0);" d="M 0 0 L 600 0 L 600 200 L 0 200 Z M 0 0 "/>
<path style="fill:none;stroke-width:0.5;stroke-linecap:butt;stroke-linejoin:miter;stroke:rgb(50%,50%,50%);stroke-opacity:1;stroke-miterlimit:10;" d="M 20 20 L 580 20 L 580 180 L 20 180 Z M 20 20 "/>
<path style="fill:none;stroke-width:0.5;stroke-linecap:butt;stroke-linejoin:miter;stroke:rgb(80%,80%,80%);stroke-opacity:1;stroke-miterlimit:10;" d="M 20 20 L 580 20 "/>
<path style="fill:none;stroke-width:0.5;stroke-linecap:butt;stroke-linejoin:miter;stroke:rgb(80%,80%,80%);stroke-opacity:1;stroke-miterlimit:10;" d="M 20 37.777344 L 580 37.777344 "/>
<path style="fill:none;stroke-width:0.5;stroke-linecap:butt;stroke-linejoin:miter;stroke:rgb(80%,80%,80%);stroke-opacity:1;stroke-miterlimit:10;" d="M 20 55.554688 L 580 55.554688 "/>
<path style="fill:none;stroke-width:0.5;stroke-linecap:butt;stroke-linejoin:miter;stroke:rgb(80%,80%,80%);stroke-opacity:1;stroke-miterlimit:10;" d="M 20 73.332031 L 580 73.332031 "/>
<path style="fill:none;stroke-width:0.5;stroke-linecap:butt;stroke-linejoin:miter;stroke:rgb(80%,80%,80%);stroke-opacity:1;stroke-miterlimit:10;" d="M 20 91.109375 L 580 91.109375 "/>
<path style="fill:none;stroke-width:0.5;stroke-linecap:butt;stroke-linejoin:miter;stroke:rgb(80%,80%,80%);stroke-opacity:1;stroke-miterlimit:10;" d="M 20 108.890625 L 580 108.890625 "/>
<path style="fill:none;stroke-width:0.5;stroke-linecap:butt;stroke-linejoin:miter;stroke:rgb(80%,80%,80%);stroke-opacity:1;stroke-miterlimit:10;" d="M 20 126.667969 L 580 126.667969 "/>
<path style="fill:none;stroke-width:0.5;stroke-linecap:butt;stroke-linejoin:miter;stroke:rgb(80%,80%,80%);stroke-opacity:1;stroke-miterlimit:10;" d="M 20 144.445312 L 580 144.445312 "/>
<path style="fill:none;stroke-width:0.5;stroke-linecap:butt;stroke-linejoin:miter;stroke:rgb(80%,80%,80%);stroke-opacity:1;stroke-miterlimit:10;" d="M 20 162.222656 L 580 162.222656 "/>
<path style="fill:none;stroke-width:0.5;stroke-linecap:butt;stroke-linejoin:miter;stroke:rgb(80%,80%,80%);stroke-opacity:1;stroke-miterlimit:10;" d="M 20 180 L 580 180 "/>
<path style=" stroke:none;fill-rule:nonzero;fill:url(#linear1);" d="M 31.667969 126.667969 L 90 126.667969 L 90 180 L 31.667969 180 Z M 31.667969 126.667969 "/>
<path style=" stroke:none;fill-rule:nonzero;fill:url(#linear2);" d="M 90 108.890625 L 148.332031 108.890625 L 148.332031 180 L 90 180 Z M 90 108.890625 "/>
<path style=" stroke:none;fill-rule:nonzero;fill:url(#linear3);" d="M 171.667969 108.890625 L 230 108.890625 L 230 180 L 171.667969 180 Z M 171.667969 108.890625 "/>
<path style=" stroke:none;fill-rule:nonzero;fill:url(#linear4);" d="M 230 37.777344 L 288.332031 37.777344 L 288.332031 180 L 230 180 Z M 230 37.777344 "/>
<path style=" stroke:none;fill-rule:nonzero;fill:url(#linear5);" d="M 311.667969 91.109375 L 370 91.109375 L 370 180 L 311.667969 180 Z M 311.667969 91.109375 "/>
<path style=" stroke:none;fill-rule:nonzero;fill:url(#linear6);" d="M 370 126.667969 L 428.332031 126.667969 L 428.332031 180 L 370 180 Z M 370 126.667969 "/>
<path style=" stroke:none;fill-rule:nonzero;fill:url(#linear7);" d="M 451.667969 20 L 510 20 L 510 180 L 451.667969 180 Z M 451.667969 20 "/>
<path style=" stroke:none;fill-rule:nonzero;fill:url(#linear8);" d="M 510 162.222656 L 568.332031 162.222656 L 568.332031 180 L 510 180 Z M 510 162.222656 "/>
</g>
</svg>
